CommittedAdultery.ufo
<glyph name="ampersand" format="2">
  <advance width="522"/>
  <unicode hex="0026"/>
  <outline>
    <contour>
      <point x="385" y="495" type="line"/>
      <point x="500" y="495" type="line"/>
      <point x="492" y="443" type="line"/>
      <point x="563" y="461" type="line"/>
      <point x="543" y="345" type="line"/>
      <point x="473" y="325" type="line"/>
      <point x="424" y="10" type="line"/>
      <point x="25" y="10" type="line"/>
      <point x="132" y="686" type="line"/>
      <point x="531" y="686" type="line"/>
      <point x="512" y="569" type="line"/>
      <point x="227" y="569" type="line"/>
      <point x="197" y="369" type="line"/>
      <point x="372" y="413" type="line"/>
    </contour>
    <contour>
      <point x="330" y="133" type="line"/>
      <point x="354" y="292" type="line"/>
      <point x="176" y="242" type="line"/>
      <point x="157" y="133" type="line"/>
    </contour>
  </outline>
</glyph>
<glyph name="hyphen" format="2">
  <advance width="337"/>
  <unicode hex="002D"/>
  <outline>
    <contour>
      <point x="362" y="318" type="line"/>
      <point x="82" y="318" type="line"/>
      <point x="100" y="432" type="line"/>
      <point x="380" y="432" type="line"/>
    </contour>
  </outline>
</glyph>
<glyph name="four" format="2">
  <advance width="426"/>
  <unicode hex="0034"/>
  <outline>
    <contour>
      <point x="415" y="10" type="line"/>
      <point x="301" y="10" type="line"/>
      <point x="352" y="330" type="line"/>
      <point x="63" y="330" type="line"/>
      <point x="120" y="686" type="line"/>
      <point x="233" y="686" type="line"/>
      <point x="195" y="444" type="line"/>
      <point x="370" y="444" type="line"/>
      <point x="408" y="686" type="line"/>
      <point x="522" y="686" type="line"/>
    </contour>
  </outline>
</glyph>
<glyph name="eight" format="2">
  <advance width="423"/>
  <unicode hex="0038"/>
  <outline>
    <contour>
      <point x="412" y="10" type="line"/>
      <point x="13" y="10" type="line"/>
      <point x="120" y="686" type="line"/>
      <point x="519" y="686" type="line"/>
    </contour>
    <contour>
      <point x="318" y="133" type="line"/>
      <point x="337" y="253" type="line"/>
      <point x="178" y="345" type="line"/>
      <point x="145" y="133" type="line"/>
    </contour>
    <contour>
      <point x="387" y="569" type="line"/>
      <point x="215" y="569" type="line"/>
      <point x="199" y="472" type="line"/>
      <point x="357" y="382" type="line"/>
    </contour>
  </outline>
</glyph>
<glyph name="colon" format="2">
  <advance width="213"/>
  <unicode hex="003A"/>
  <outline>
    <contour>
      <point x="155" y="652" type="line"/>
      <point x="268" y="652" type="line"/>
      <point x="250" y="538" type="line"/>
      <point x="137" y="538" type="line"/>
    </contour>
    <contour>
      <point x="80" y="177" type="line"/>
      <point x="193" y="177" type="line"/>
      <point x="176" y="69" type="line"/>
      <point x="63" y="69" type="line"/>
    </contour>
  </outline>
</glyph>
<glyph name="less" format="2">
  <advance width="281"/>
  <unicode hex="003C"/>
  <outline>
    <contour>
      <point x="23" y="343" type="line"/>
      <point x="331" y="653" type="line"/>
      <point x="303" y="474" type="line"/>
      <point x="161" y="331" type="line"/>
      <point x="263" y="194" type="line"/>
      <point x="238" y="41" type="line"/>
    </contour>
  </outline>
</glyph>
<glyph name="equal" format="2">
  <advance width="328"/>
  <unicode hex="003D"/>
  <outline>
    <contour>
      <point x="350" y="330" type="line"/>
      <point x="83" y="330" type="line"/>
      <point x="101" y="444" type="line"/>
      <point x="368" y="444" type="line"/>
    </contour>
    <contour>
      <point x="323" y="156" type="line"/>
      <point x="56" y="156" type="line"/>
      <point x="74" y="270" type="line"/>
      <point x="341" y="270" type="line"/>
    </contour>
  </outline>
</glyph>
<glyph name="greater" format="2">
  <advance width="281"/>
  <unicode hex="003E"/>
  <outline>
    <contour>
      <point x="331" y="351" type="line"/>
      <point x="23" y="41" type="line"/>
      <point x="51" y="220" type="line"/>
      <point x="193" y="363" type="line"/>
      <point x="91" y="500" type="line"/>
      <point x="116" y="653" type="line"/>
    </contour>
  </outline>
</glyph>
<glyph name="at" format="2">
  <advance width="928"/>
  <unicode hex="0040"/>
  <outline>
    <contour>
      <point x="734" y="557" type="line"/>
      <point x="674" y="189" type="line"/>
      <point x="780" y="189" type="line"/>
      <point x="857" y="682" type="line"/>
      <point x="258" y="682" type="line"/>
      <point x="147" y="-27" type="line"/>
      <point x="858" y="-27" type="line"/>
      <point x="839" y="-150" type="line"/>
      <point x="15" y="-150" type="line"/>
      <point x="164" y="799" type="line"/>
      <point x="988" y="799" type="line"/>
      <point x="878" y="103" type="line"/>
      <point x="261" y="103" type="line"/>
      <point x="335" y="557" type="line"/>
    </contour>
    <contour>
      <point x="603" y="440" type="line"/>
      <point x="429" y="440" type="line"/>
      <point x="393" y="226" type="line"/>
      <point x="567" y="226" type="line"/>
    </contour>
  </outline>
</glyph>
<glyph name="A" format="2">
  <advance width="422"/>
  <unicode hex="0041"/>
  <outline>
    <contour>
      <point x="334" y="232" type="line"/>
      <point x="161" y="232" type="line"/>
      <point x="126" y="10" type="line"/>
      <point x="13" y="10" type="line"/>
      <point x="120" y="686" type="line"/>
      <point x="321" y="686" type="line"/>
      <point x="499" y="564" type="line"/>
      <point x="411" y="10" type="line"/>
      <point x="299" y="10" type="line"/>
    </contour>
    <contour>
      <point x="352" y="345" type="line"/>
      <point x="376" y="496" type="line"/>
      <point x="275" y="569" type="line"/>
      <point x="215" y="569" type="line"/>
      <point x="179" y="345" type="line"/>
    </contour>
  </outline>
</glyph>
<glyph name="B" format="2">
  <advance width="423"/>
  <unicode hex="0042"/>
  <outline>
    <contour>
      <point x="519" y="686" type="line"/>
      <point x="487" y="481" type="line"/>
      <point x="408" y="425" type="line"/>
      <point x="478" y="425" type="line"/>
      <point x="428" y="113" type="line"/>
      <point x="257" y="10" type="line"/>
      <point x="13" y="10" type="line"/>
      <point x="120" y="686" type="line"/>
    </contour>
    <contour>
      <point x="350" y="328" type="line"/>
      <point x="271" y="328" type="line"/>
      <point x="164" y="252" type="line"/>
      <point x="146" y="133" type="line"/>
      <point x="233" y="133" type="line"/>
      <point x="329" y="192" type="line"/>
    </contour>
    <contour>
      <point x="381" y="523" type="line"/>
      <point x="389" y="569" type="line"/>
      <point x="215" y="569" type="line"/>
      <point x="186" y="386" type="line"/>
    </contour>
  </outline>
</glyph>
<glyph name="C" format="2">
  <advance width="423"/>
  <unicode hex="0043"/>
  <outline>
    <contour>
      <point x="519" y="686" type="line"/>
      <point x="501" y="569" type="line"/>
      <point x="215" y="569" type="line"/>
      <point x="146" y="133" type="line"/>
      <point x="432" y="133" type="line"/>
      <point x="412" y="10" type="line"/>
      <point x="13" y="10" type="line"/>
      <point x="120" y="686" type="line"/>
    </contour>
  </outline>
</glyph>
<glyph name="G" format="2">
  <advance width="423"/>
  <unicode hex="0047"/>
  <outline>
    <contour>
      <point x="519" y="686" type="line"/>
      <point x="501" y="569" type="line"/>
      <point x="215" y="569" type="line"/>
      <point x="146" y="133" type="line"/>
      <point x="320" y="133" type="line"/>
      <point x="344" y="288" type="line"/>
      <point x="229" y="227" type="line"/>
      <point x="249" y="359" type="line"/>
      <point x="485" y="472" type="line"/>
      <point x="412" y="10" type="line"/>
      <point x="13" y="10" type="line"/>
      <point x="120" y="686" type="line"/>
    </contour>
  </outline>
</glyph>
<glyph name="d" format="2">
  <advance width="422"/>
  <unicode hex="0064"/>
  <outline>
    <contour>
      <point x="321" y="686" type="line"/>
      <point x="499" y="563" type="line"/>
      <point x="411" y="10" type="line"/>
      <point x="13" y="10" type="line"/>
      <point x="120" y="686" type="line"/>
    </contour>
    <contour>
      <point x="215" y="569" type="line"/>
      <point x="146" y="133" type="line"/>
      <point x="319" y="133" type="line"/>
      <point x="376" y="495" type="line"/>
      <point x="275" y="569" type="line"/>
    </contour>
  </outline>
</glyph>
<glyph name="bar" format="2">
  <advance width="231"/>
  <unicode hex="007C"/>
  <outline>
    <contour>
      <point x="200" y="793" type="line"/>
      <point x="280" y="793" type="line"/>
      <point x="140" y="-79" type="line"/>
      <point x="60" y="-79" type="line"/>
    </contour>
  </outline>
</glyph>
<glyph name="asciitilde" format="2">
  <advance width="-448"/>
  <unicode hex="007E"/>
  <outline>
    <contour>
      <point x="-25" y="361" type="line"/>
      <point x="-48" y="326"/>
      <point x="-115" y="281"/>
      <point x="-153" y="281" type="qcurve" smooth="yes"/>
      <point x="-178" y="281"/>
      <point x="-212" y="296"/>
      <point x="-239" y="313"/>
      <point x="-263" y="328"/>
      <point x="-279" y="328" type="qcurve" smooth="yes"/>
      <point x="-300" y="328"/>
      <point x="-336" y="302"/>
      <point x="-349" y="284" type="qcurve"/>
      <point x="-408" y="349" type="line"/>
      <point x="-384" y="384"/>
      <point x="-315" y="428"/>
      <point x="-277" y="428" type="qcurve" smooth="yes"/>
      <point x="-253" y="428"/>
      <point x="-220" y="414"/>
      <point x="-194" y="396"/>
      <point x="-170" y="382"/>
      <point x="-155" y="382" type="qcurve" smooth="yes"/>
      <point x="-133" y="382"/>
      <point x="-98" y="407"/>
      <point x="-85" y="427" type="qcurve"/>
    </contour>
  </outline>
</glyph>
<glyph name="exclamdown" format="2">
  <advance width="137"/>
  <unicode hex="00A1"/>
  <outline>
    <contour>
      <point x="126" y="10" type="line"/>
      <point x="13" y="10" type="line"/>
      <point x="96" y="532" type="line"/>
      <point x="209" y="532" type="line"/>
    </contour>
    <contour>
      <point x="233" y="686" type="line"/>
      <point x="216" y="575" type="line"/>
      <point x="103" y="575" type="line"/>
      <point x="120" y="686" type="line"/>
    </contour>
  </outline>
</glyph>
<glyph name="copyright" format="2">
  <advance width="-621"/>
  <unicode hex="00A9"/>
  <outline>
    <contour>
      <point x="-529" y="347" type="qcurve" smooth="yes"/>
      <point x="-529" y="395"/>
      <point x="-492" y="483"/>
      <point x="-430" y="549"/>
      <point x="-347" y="587"/>
      <point x="-299" y="587" type="qcurve" smooth="yes"/>
      <point x="-252" y="587"/>
      <point x="-166" y="549"/>
      <point x="-103" y="483"/>
      <point x="-66" y="395"/>
      <point x="-66" y="347" type="qcurve" smooth="yes"/>
      <point x="-66" y="296"/>
      <point x="-103" y="210"/>
      <point x="-166" y="145"/>
      <point x="-252" y="108"/>
      <point x="-299" y="108" type="qcurve" smooth="yes"/>
      <point x="-347" y="108"/>
      <point x="-430" y="145"/>
      <point x="-492" y="210"/>
      <point x="-529" y="296"/>
    </contour>
    <contour>
      <point x="-475" y="347" type="qcurve" smooth="yes"/>
      <point x="-475" y="271"/>
      <point x="-372" y="165"/>
      <point x="-299" y="165" type="qcurve" smooth="yes"/>
      <point x="-224" y="165"/>
      <point x="-119" y="271"/>
      <point x="-119" y="347" type="qcurve" smooth="yes"/>
      <point x="-119" y="424"/>
      <point x="-224" y="532"/>
      <point x="-299" y="532" type="qcurve" smooth="yes"/>
      <point x="-372" y="532"/>
      <point x="-475" y="424"/>
    </contour>
    <contour>
      <point x="-196" y="484" type="line"/>
      <point x="-204" y="440" type="line"/>
      <point x="-323" y="440" type="line"/>
      <point x="-352" y="276" type="line"/>
      <point x="-233" y="276" type="line"/>
      <point x="-241" y="229" type="line"/>
      <point x="-408" y="229" type="line"/>
      <point x="-363" y="484" type="line"/>
    </contour>
  </outline>
</glyph>
<glyph name="guillemetleft" format="2">
  <advance width="432"/>
  <unicode hex="00AB"/>
  <outline>
    <contour>
      <point x="394" y="686" type="line"/>
      <point x="523" y="686" type="line"/>
      <point x="164" y="10" type="line"/>
      <point x="35" y="10" type="line"/>
    </contour>
  </outline>
</glyph>
<glyph name="guillemotleft" format="2">
  <advance width="633"/>
  <unicode hex="00AB"/>
  <outline>
    <contour>
      <point x="608" y="174" type="line"/>
      <point x="586" y="33" type="line"/>
      <point x="265" y="298" type="line"/>
      <point x="279" y="384" type="line"/>
      <point x="684" y="649" type="line"/>
      <point x="661" y="509" type="line"/>
      <point x="406" y="341" type="line"/>
    </contour>
    <contour>
      <point x="378" y="174" type="line"/>
      <point x="356" y="33" type="line"/>
      <point x="35" y="298" type="line"/>
      <point x="49" y="384" type="line"/>
      <point x="454" y="649" type="line"/>
      <point x="431" y="509" type="line"/>
      <point x="176" y="341" type="line"/>
    </contour>
  </outline>
</glyph>
<glyph name="acute" format="2">
  <advance width="343"/>
  <unicode hex="00B4"/>
  <outline>
    <contour>
      <point x="362" y="726" type="line"/>
      <point x="247" y="726" type="line"/>
      <point x="320" y="833" type="line"/>
      <point x="435" y="833" type="line"/>
    </contour>
  </outline>
</glyph>
<glyph name="germandbls" format="2">
  <advance width="486"/>
  <unicode hex="00DF"/>
  <outline>
    <contour>
      <point x="97" y="563" type="line"/>
      <point x="313" y="685" type="line"/>
      <point x="569" y="685" type="line"/>
      <point x="537" y="481" type="line"/>
      <point x="458" y="425" type="line"/>
      <point x="528" y="425" type="line"/>
      <point x="478" y="113" type="line"/>
      <point x="307" y="10" type="line"/>
      <point x="178" y="10" type="line"/>
      <point x="197" y="133" type="line"/>
      <point x="283" y="133" type="line"/>
      <point x="379" y="192" type="line"/>
      <point x="400" y="328" type="line"/>
      <point x="321" y="328" type="line"/>
      <point x="207" y="255" type="line"/>
      <point x="229" y="396" type="line"/>
      <point x="431" y="523" type="line"/>
      <point x="439" y="569" type="line"/>
      <point x="323" y="569" type="line"/>
      <point x="198" y="495" type="line"/>
      <point x="126" y="10" type="line"/>
      <point x="14" y="10" type="line"/>
    </contour>
  </outline>
</glyph>
<glyph name="divide" format="2">
  <advance width="478"/>
  <unicode hex="00F7"/>
  <outline>
    <contour>
      <point x="479" y="313" type="line"/>
      <point x="86" y="313" type="line"/>
      <point x="104" y="427" type="line"/>
      <point x="497" y="427" type="line"/>
    </contour>
    <contour>
      <point x="263" y="652" type="line"/>
      <point x="376" y="652" type="line"/>
      <point x="358" y="538" type="line"/>
      <point x="245" y="538" type="line"/>
    </contour>
    <contour>
      <point x="188" y="177" type="line"/>
      <point x="301" y="177" type="line"/>
      <point x="284" y="69" type="line"/>
      <point x="171" y="69" type="line"/>
    </contour>
  </outline>
</glyph>
<glyph name="Amacron" format="2">
  <advance width="422"/>
  <unicode hex="0100"/>
  <outline>
    <contour>
      <point x="466" y="727" type="line"/>
      <point x="186" y="727" type="line"/>
      <point x="204" y="841" type="line"/>
      <point x="484" y="841" type="line"/>
    </contour>
    <contour>
      <point x="334" y="232" type="line"/>
      <point x="161" y="232" type="line"/>
      <point x="126" y="10" type="line"/>
      <point x="13" y="10" type="line"/>
      <point x="120" y="686" type="line"/>
      <point x="321" y="686" type="line"/>
      <point x="499" y="564" type="line"/>
      <point x="411" y="10" type="line"/>
      <point x="299" y="10" type="line"/>
    </contour>
    <contour>
      <point x="352" y="345" type="line"/>
      <point x="376" y="496" type="line"/>
      <point x="275" y="569" type="line"/>
      <point x="215" y="569" type="line"/>
      <point x="179" y="345" type="line"/>
    </contour>
  </outline>
</glyph>
<glyph name="Cdotaccent" format="2">
  <advance width="384"/>
  <unicode hex="010A"/>
  <outline>
    <contour>
      <point x="480" y="686" type="line"/>
      <point x="462" y="569" type="line"/>
      <point x="215" y="569" type="line"/>
      <point x="189" y="410" type="line"/>
      <point x="366" y="491" type="line"/>
      <point x="346" y="365" type="line"/>
      <point x="169" y="284" type="line"/>
      <point x="126" y="10" type="line"/>
      <point x="13" y="10" type="line"/>
      <point x="120" y="686" type="line"/>
    </contour>
  </outline>
</glyph>
<glyph name="emacron" format="2">
  <advance width="411"/>
  <unicode hex="0113"/>
  <outline>
    <contour>
      <point x="466" y="727" type="line"/>
      <point x="186" y="727" type="line"/>
      <point x="204" y="841" type="line"/>
      <point x="484" y="841" type="line"/>
    </contour>
    <contour>
      <point x="189" y="406" type="line"/>
      <point x="374" y="484" type="line"/>
      <point x="354" y="358" type="line"/>
      <point x="169" y="280" type="line"/>
      <point x="146" y="133" type="line"/>
      <point x="420" y="133" type="line"/>
      <point x="400" y="10" type="line"/>
      <point x="13" y="10" type="line"/>
      <point x="120" y="686" type="line"/>
      <point x="507" y="686" type="line"/>
      <point x="489" y="569" type="line"/>
      <point x="215" y="569" type="line"/>
    </contour>
  </outline>
</glyph>
<glyph name="Edotaccent" format="2">
  <advance width="424"/>
  <unicode hex="0116"/>
  <outline>
    <contour>
      <point x="120" y="686" type="line"/>
      <point x="519" y="686" type="line"/>
      <point x="501" y="569" type="line"/>
      <point x="175" y="133" type="line"/>
      <point x="433" y="133" type="line"/>
      <point x="412" y="10" type="line"/>
      <point x="13" y="10" type="line"/>
      <point x="32" y="132" type="line"/>
      <point x="366" y="569" type="line"/>
      <point x="102" y="569" type="line"/>
    </contour>
  </outline>
</glyph>
<glyph name="Imacron" format="2">
  <advance width="137"/>
  <unicode hex="012A"/>
  <outline>
    <contour>
      <point x="326" y="727" type="line"/>
      <point x="46" y="727" type="line"/>
      <point x="64" y="841" type="line"/>
      <point x="344" y="841" type="line"/>
    </contour>
    <contour>
      <point x="120" y="686" type="line"/>
      <point x="233" y="686" type="line"/>
      <point x="126" y="10" type="line"/>
      <point x="13" y="10" type="line"/>
    </contour>
  </outline>
</glyph>
<glyph name="imacron" format="2">
  <advance width="137"/>
  <unicode hex="012B"/>
  <outline>
    <contour>
      <point x="357" y="727" type="line"/>
      <point x="77" y="727" type="line"/>
      <point x="95" y="841" type="line"/>
      <point x="375" y="841" type="line"/>
    </contour>
    <contour>
      <point x="120" y="686" type="line"/>
      <point x="233" y="686" type="line"/>
      <point x="126" y="10" type="line"/>
      <point x="13" y="10" type="line"/>
    </contour>
  </outline>
</glyph>
<glyph name="idotless" format="2">
  <advance width="137"/>
  <unicode hex="0131"/>
  <outline>
    <contour>
      <point x="120" y="686" type="line"/>
      <point x="233" y="686" type="line"/>
      <point x="126" y="10" type="line"/>
      <point x="13" y="10" type="line"/>
    </contour>
  </outline>
</glyph>
<glyph name="Kcommaaccent" format="2">
  <advance width="418"/>
  <unicode hex="0136"/>
  <outline>
    <contour>
      <point x="102" y="569" type="line"/>
      <point x="120" y="686" type="line"/>
      <point x="514" y="686" type="line"/>
      <point x="421" y="95" type="line"/>
      <point x="208" y="10" type="line"/>
      <point x="27" y="95" type="line"/>
      <point x="57" y="287" type="line"/>
      <point x="169" y="287" type="line"/>
      <point x="150" y="170" type="line"/>
      <point x="228" y="133" type="line"/>
      <point x="319" y="170" type="line"/>
      <point x="383" y="569" type="line"/>
    </contour>
  </outline>
</glyph>
<glyph name="kcommaaccent" format="2">
  <advance width="423"/>
  <unicode hex="0137"/>
  <outline>
    <contour>
      <point x="370" y="514" type="line"/>
      <point x="397" y="686" type="line"/>
      <point x="519" y="686" type="line"/>
      <point x="486" y="477" type="line"/>
      <point x="407" y="421" type="line"/>
      <point x="477" y="421" type="line"/>
      <point x="412" y="10" type="line"/>
      <point x="300" y="10" type="line"/>
      <point x="350" y="324" type="line"/>
      <point x="271" y="324" type="line"/>
      <point x="164" y="248" type="line"/>
      <point x="126" y="10" type="line"/>
      <point x="13" y="10" type="line"/>
      <point x="120" y="686" type="line"/>
      <point x="233" y="686" type="line"/>
      <point x="186" y="390" type="line"/>
    </contour>
  </outline>
</glyph>
<glyph name="lcommaaccent" format="2">
  <advance width="422"/>
  <unicode hex="013C"/>
  <outline>
    <contour>
      <point x="215" y="569" type="line"/>
      <point x="126" y="10" type="line"/>
      <point x="13" y="10" type="line"/>
      <point x="120" y="686" type="line"/>
      <point x="321" y="686" type="line"/>
      <point x="499" y="563" type="line"/>
      <point x="411" y="10" type="line"/>
      <point x="299" y="10" type="line"/>
      <point x="376" y="495" type="line"/>
      <point x="275" y="569" type="line"/>
    </contour>
  </outline>
</glyph>
<glyph name="gravecomb" format="2">
  <advance width="328"/>
  <unicode hex="0300"/>
  <outline>
    <contour>
      <point x="350" y="330" type="line"/>
      <point x="83" y="330" type="line"/>
      <point x="101" y="444" type="line"/>
      <point x="368" y="444" type="line"/>
    </contour>
    <contour>
      <point x="323" y="156" type="line"/>
      <point x="56" y="156" type="line"/>
      <point x="74" y="270" type="line"/>
      <point x="341" y="270" type="line"/>
    </contour>
  </outline>
</glyph>
<glyph name="acutecomb" format="2">
  <advance width="224"/>
  <unicode hex="0301"/>
  <outline>
    <contour>
      <point x="167" y="686" type="line"/>
      <point x="280" y="686" type="line"/>
      <point x="242" y="451" type="line"/>
      <point x="129" y="451" type="line"/>
    </contour>
  </outline>
</glyph>
<glyph name="brevecomb" format="2">
  <advance width="273"/>
  <unicode hex="0306"/>
  <outline>
    <contour>
      <point x="89" y="434" type="line"/>
      <point x="171" y="468" type="line"/>
      <point x="235" y="852" type="line"/>
      <point x="445" y="852" type="line"/>
      <point x="427" y="736" type="line"/>
      <point x="328" y="736" type="line"/>
      <point x="273" y="393" type="line"/>
      <point x="165" y="350" type="line"/>
      <point x="256" y="287" type="line"/>
      <point x="200" y="-66" type="line"/>
      <point x="304" y="-66" type="line"/>
      <point x="285" y="-183" type="line"/>
      <point x="68" y="-183" type="line"/>
      <point x="133" y="219" type="line"/>
      <point x="63" y="270" type="line"/>
    </contour>
  </outline>
</glyph>
<glyph name="dotaccentcomb" format="2">
  <advance width="273"/>
  <unicode hex="0307"/>
  <outline>
    <contour>
      <point x="279" y="235" type="line"/>
      <point x="197" y="201" type="line"/>
      <point x="133" y="-183" type="line"/>
      <point x="-77" y="-183" type="line"/>
      <point x="-59" y="-67" type="line"/>
      <point x="40" y="-67" type="line"/>
      <point x="95" y="276" type="line"/>
      <point x="203" y="319" type="line"/>
      <point x="112" y="382" type="line"/>
      <point x="168" y="735" type="line"/>
      <point x="64" y="735" type="line"/>
      <point x="83" y="852" type="line"/>
      <point x="300" y="852" type="line"/>
      <point x="235" y="450" type="line"/>
      <point x="305" y="399" type="line"/>
    </contour>
  </outline>
</glyph>
<glyph name="guilsinglright" format="2">
  <advance width="647"/>
  <unicode hex="203A"/>
  <outline>
    <contour>
      <point x="587" y="686" type="line"/>
      <point x="740" y="686" type="line"/>
      <point x="188" y="10" type="line"/>
      <point x="35" y="10" type="line"/>
    </contour>
    <contour>
      <point x="677" y="354" type="line"/>
      <point x="622" y="10" type="line"/>
      <point x="304" y="10" type="line"/>
      <point x="359" y="354" type="line"/>
    </contour>
    <contour>
      <point x="546" y="237" type="line"/>
      <point x="453" y="237" type="line"/>
      <point x="436" y="133" type="line"/>
      <point x="529" y="133" type="line"/>
    </contour>
    <contour>
      <point x="465" y="686" type="line"/>
      <point x="410" y="342" type="line"/>
      <point x="92" y="342" type="line"/>
      <point x="147" y="686" type="line"/>
    </contour>
    <contour>
      <point x="334" y="569" type="line"/>
      <point x="241" y="569" type="line"/>
      <point x="224" y="465" type="line"/>
      <point x="317" y="465" type="line"/>
    </contour>
  </outline>
</glyph>
<glyph name="caroncomb" format="2">
  <advance width="833"/>
  <outline>
    <contour>
      <point x="362" y="726" type="line"/>
      <point x="202" y="726" type="line"/>
      <point x="127" y="831" type="line"/>
      <point x="237" y="831" type="line"/>
      <point x="279" y="771" type="line"/>
      <point x="320" y="833" type="line"/>
      <point x="435" y="833" type="line"/>
    </contour>
  </outline>
</glyph>
<glyph name="commaaccentcomb" format="2">
  <advance width="-237"/>
  <outline>
    <contour>
      <point x="-144" y="985" type="line"/>
      <point x="-31" y="985" type="line"/>
      <point x="-69" y="750" type="line"/>
      <point x="-182" y="750" type="line"/>
    </contour>
  </outline>
</glyph>
<glyph name="dcroat.1" format="2">
  <advance width="493"/>
  <outline>
    <contour>
      <point x="384" y="686" type="line"/>
      <point x="562" y="563" type="line"/>
      <point x="474" y="10" type="line"/>
      <point x="76" y="10" type="line"/>
      <point x="183" y="686" type="line"/>
    </contour>
    <contour>
      <point x="278" y="569" type="line"/>
      <point x="209" y="133" type="line"/>
      <point x="382" y="133" type="line"/>
      <point x="439" y="495" type="line"/>
      <point x="338" y="569" type="line"/>
    </contour>
    <contour>
      <point x="349" y="310" type="line"/>
      <point x="69" y="310" type="line"/>
      <point x="87" y="424" type="line"/>
      <point x="367" y="424" type="line"/>
    </contour>
  </outline>
</glyph>
<glyph name="dotaccentcomb.1" format="2">
  <advance width="833"/>
  <outline>
    <contour>
      <point x="266" y="859" type="line"/>
      <point x="405" y="859" type="line"/>
      <point x="383" y="727" type="line"/>
      <point x="244" y="727" type="line"/>
    </contour>
  </outline>
</glyph>
<glyph name="guilsinglright.1" format="2">
  <advance width="633"/>
  <outline>
    <contour>
      <point x="233" y="508" type="line"/>
      <point x="255" y="649" type="line"/>
      <point x="576" y="384" type="line"/>
      <point x="562" y="298" type="line"/>
      <point x="157" y="33" type="line"/>
      <point x="180" y="173" type="line"/>
      <point x="435" y="341" type="line"/>
    </contour>
  </outline>
</glyph>
